<svg width="18" height="18" fill="none" xmlns="http://www.w3.org/2000/svg"><path d="M0 8c0-3.771 0-5.657 1.172-6.828C2.343 0 4.229 0 8 0h2c3.771 0 5.657 0 6.828 1.172C18 2.343 18 4.229 18 8v2c0 3.771 0 5.657-1.172 6.828C15.657 18 13.771 18 10 18H8c-3.771 0-5.657 0-6.828-1.172C0 15.657 0 13.771 0 10V8Z" fill="#CD0000"/><path fill-rule="evenodd" clip-rule="evenodd" d="M14.357 4.747a.844.844 0 0 1 0 1.192L8.45 12.97a.844.844 0 0 1-1.192 0L3.6 9.314a.844.844 0 0 1 1.193-1.192l3.06 3.06 5.31-6.435a.843.843 0 0 1 1.193 0Z" fill="#fff"/></svg>