<svg width="34" height="34" fill="none" xmlns="http://www.w3.org/2000/svg"><path d="M12.66 21.34c-.478-.318-.815-3.227-.612-7.063 5.187-.43 12.614-.244 21.95 2.427L34 17c0 2.632-.598 5.124-1.666 7.348-6.16-2.543-12.72-2.666-16.521-2.737-1.685-.032-2.827-.053-3.153-.27Z" fill="#CD0000"/><path d="M29.989 27.969A16.963 16.963 0 0 1 17 34C7.611 34 0 26.389 0 17 0 10.191 4.003 4.317 9.784 1.603c-1.045 3.67-1.66 7.004-1.968 9.949a34.663 34.663 0 0 0-4.922 1.47C1.447 13.563 2 16 3.979 15.552c.28-.04.679-.123 1.194-.231a68.81 68.81 0 0 1 2.415-.472c-.228 7.098 1.429 11.193 2.54 11.193.197 0 .533-.013.984-.03 3.189-.124 12.142-.47 18.877 1.956Z" fill="#CD0000"/><path d="M15.41.073c-1.652 3.226-2.585 7.144-3.047 10.735 5.061-.556 12.032-.485 20.99 1.53C31.327 5.217 24.773 0 17 0c-.536 0-1.067.025-1.59.073Z" fill="#CD0000"/></svg>